<svg width="24" height="24" viewBox="0 0 24 24" fill="none" xmlns="http://www.w3.org/2000/svg">
<g id="icon/multicolor/error-circle">
<path id="background" fill-rule="evenodd" clip-rule="evenodd" d="M21.7354 11.698C21.8305 17.1483 17.3187 21.6439 11.8684 21.739C6.41908 21.8332 2.09568 17.4919 2.00148 12.0416C1.90638 6.59319 6.41908 2.09573 11.8684 2.00153C17.3178 1.90643 21.6412 6.24958 21.7354 11.698Z" fill="#F1515F"/>
<path id="icon" fill-rule="evenodd" clip-rule="evenodd" d="M11.139 13.421L10.8379 7.26315H12.9453L12.6716 13.421H11.139ZM10.8105 15.4326C10.8105 14.8305 11.3032 14.3242 11.9053 14.3242C12.5074 14.3242 13 14.8305 13 15.4326C13 16.021 12.5074 16.5274 11.9053 16.5274C11.3032 16.5274 10.8105 16.021 10.8105 15.4326Z" fill="white"/>
</g>
</svg>
